# xmcd
#
# Track frame offsets:
#	150
#	20826
#	46127
#	69345
#	90598
#	118276
#	137715
#	162842
#	188308
#	212352
#
# Disc length: 3341 seconds
#
# Revision: 1
# Processed by: cddbd v1.5.1PL0 Copyright (c) Steve Scherf et al.
# Submitted via: audiograbber 1.83.01
#
DISCID=7e0d0b0a
DTITLE=Chris Cobb Band - C.C.'s Blues
DYEAR=1900
DGENRE=Blues
TTITLE0=Tired Of Everything
TTITLE1=Work For It
TTITLE2=The Way It Goes
TTITLE3=Givin' Up
TTITLE4=Bad Brain
TTITLE5=Nod
TTITLE6=Bought Up
TTITLE7=Albert's Blues
TTITLE8=Turnin' Your Love
TTITLE9=Heart Full of Trouble (C.C.'s Blues)
EXTD=
EXTT0=
EXTT1=
EXTT2=
EXTT3=
EXTT4=
EXTT5=
EXTT6=
EXTT7=
EXTT8=
EXTT9=
PLAYORDER=
